<svg width="52" height="54" viewBox="0 0 52 54" fill="none" xmlns="http://www.w3.org/2000/svg">
<g clip-path="url(#clip0_8_64)">
<path d="M40.4662 8.52978e-06H11.5427C10.0282 -0.000617027 8.52854 0.308584 7.12924 0.909978C5.72994 1.51137 4.45849 2.39318 3.38743 3.50499C2.31638 4.6168 1.46673 5.93684 0.887053 7.38972C0.307377 8.8426 0.00899494 10.3998 0.00899506 11.9725V42.0228C0.012641 45.1968 1.22938 48.2396 3.39197 50.4827C5.55455 52.7258 8.48612 53.9857 11.5427 53.9857H40.4753C43.5335 53.9857 46.4664 52.7245 48.6293 50.4793C50.7921 48.2342 52.0078 45.189 52.009 42.0132V11.963C52.0078 10.3903 51.7083 8.83331 51.1275 7.38091C50.5467 5.92851 49.696 4.60917 48.6241 3.49824C47.5522 2.38732 46.2801 1.50658 44.8803 0.906344C43.4805 0.306107 41.9806 -0.00186864 40.4662 8.52978e-06ZM37.8064 22.2401C37.6949 23.2493 37.4764 24.2427 37.1551 25.2022C36.4542 27.4176 35.556 29.5604 34.4724 31.6028C33.7386 33.0315 32.9728 34.4268 32.1473 35.7889C31.0696 37.5747 29.946 39.3273 28.795 41.056C27.9649 42.3085 27.0569 43.5086 26.1856 44.7325C26.1397 44.7992 26.1076 44.8754 26.0664 44.9468H25.9884C25.7912 44.6658 25.6031 44.3849 25.4014 44.1134C23.8972 42.0561 22.4664 39.9496 21.1089 37.7938C19.9166 35.8889 18.7839 33.9554 17.752 31.9552C16.6552 29.8884 15.7345 27.7261 15.0005 25.4927C14.6607 24.5132 14.4194 23.4998 14.2804 22.4687C14.1659 21.4641 14.1659 20.4491 14.2804 19.4446C14.4144 18.2517 14.7237 17.0873 15.1976 15.9919C16.2295 13.5528 18.001 11.5308 20.2422 10.2342C21.5693 9.45263 23.0333 8.95395 24.5484 8.76743C26.7537 8.47449 28.9938 8.84128 31.0054 9.82469C33.3802 10.9656 35.3179 12.9007 36.5085 15.3204C37.1087 16.5116 37.5104 17.7998 37.6963 19.1303C37.8582 20.158 37.8952 21.2028 37.8064 22.2401Z" fill="#0089C4"/>
<path d="M26.016 14.9347C24.4863 14.941 23.0213 15.5765 21.9417 16.702C20.8622 17.8275 20.2561 19.3514 20.2561 20.94C20.2536 21.7324 20.4024 22.5175 20.6937 23.2499C20.985 23.9823 21.4131 24.6475 21.9533 25.2072C22.4935 25.7668 23.1351 26.2098 23.8411 26.5106C24.5471 26.8114 25.3034 26.964 26.0665 26.9596C27.6002 26.9545 29.0695 26.3179 30.1518 25.1895C31.2342 24.061 31.8414 22.5327 31.8402 20.94C31.8396 20.1479 31.6883 19.3638 31.3948 18.6327C31.1014 17.9016 30.6717 17.2379 30.1305 16.6798C29.5892 16.1217 28.9471 15.6802 28.241 15.3808C27.5349 15.0813 26.7788 14.9297 26.016 14.9347Z" fill="#0089C4"/>
</g>
<defs>
<clipPath id="clip0_8_64">
<rect width="52" height="54" fill="white"/>
</clipPath>
</defs>
</svg>
