<svg width="38" height="39" viewBox="0 0 38 39" fill="none" xmlns="http://www.w3.org/2000/svg">
<g clip-path="url(#clip0_13_99)">
<path d="M29.5716 6.89417e-07H8.4284C6.19567 -0.000913701 4.05391 0.90779 2.47356 2.5265C0.893214 4.14521 0.0035523 6.34154 0 8.63303V30.3326C0 32.6268 0.887975 34.827 2.46861 36.4492C4.04925 38.0714 6.19304 38.9828 8.4284 38.9828H29.5716C30.6784 38.9828 31.7744 38.759 32.797 38.3243C33.8196 37.8896 34.7487 37.2524 35.5314 36.4492C36.314 35.6459 36.9349 34.6923 37.3584 33.6429C37.782 32.5934 38 31.4685 38 30.3326V8.63303C37.9965 6.34154 37.1068 4.14521 35.5264 2.5265C33.9461 0.90779 31.8043 -0.000913701 29.5716 6.89417e-07ZM32.8625 18.7657C30.8517 18.917 28.8142 18.9617 26.8302 19.2334C22.2825 19.8525 19.816 22.5078 19.3502 27.1958C19.1324 29.4005 19.0151 31.6155 18.6431 33.8511C18.6029 33.4762 18.5526 33.1013 18.5224 32.7264C18.3414 30.4701 18.2811 28.1967 17.9594 25.961C17.45 22.4665 15.1578 20.0314 11.7764 19.4501C9.49749 19.0615 7.16836 18.9858 4.86269 18.7622C4.48735 18.7244 4.10865 18.7072 3.72996 18.6831V18.4183C5.95855 18.2429 8.19718 18.1603 10.4124 17.8714C15.2684 17.242 17.6712 14.6933 18.1873 9.70614C18.3716 7.94169 18.4051 6.16349 18.5224 4.39217C18.5178 3.97515 18.6513 3.56889 18.9011 3.23996C18.9782 4.71893 18.9983 6.2082 19.1491 7.68029C19.2596 9.18761 19.4905 10.6831 19.8395 12.1516C20.6706 15.2471 22.7383 17.1319 25.8047 17.6547C27.9764 18.0227 30.1915 18.1053 32.39 18.2979C32.8524 18.3392 33.3216 18.2979 33.7841 18.2979C33.7841 18.4183 33.8109 18.5387 33.8209 18.6418C33.4925 18.6969 33.1775 18.7416 32.8625 18.7657Z" fill="#0089C4"/>
</g>
<defs>
<clipPath id="clip0_13_99">
<rect width="38" height="39" fill="white"/>
</clipPath>
</defs>
</svg>
