<svg width="362" height="131" viewBox="0 0 362 131" fill="none" xmlns="http://www.w3.org/2000/svg">
<g clip-path="url(#clip0_6_4)">
<path d="M236.342 72.7993C220.552 72.7993 207.703 85.6025 207.703 101.341C207.703 117.079 220.552 129.88 236.342 129.88C252.133 129.88 264.983 117.079 264.983 101.341C264.983 85.6025 252.133 72.7993 236.342 72.7993ZM247.582 101.341C247.582 103.556 246.923 105.721 245.688 107.563C244.453 109.405 242.698 110.841 240.644 111.688C238.59 112.536 236.33 112.758 234.15 112.326C231.969 111.893 229.967 110.827 228.395 109.26C226.823 107.694 225.752 105.698 225.319 103.526C224.885 101.353 225.108 99.101 225.958 97.0544C226.809 95.0078 228.25 93.2586 230.098 92.0279C231.946 90.7971 234.119 90.1403 236.342 90.1403C239.322 90.1438 242.179 91.3249 244.286 93.4246C246.393 95.5243 247.579 98.3711 247.582 101.341Z" fill="#BB181E"/>
<path d="M137.74 39.9408C123.349 64.2152 115.425 96.265 115.425 130.197V130.785H133.623V130.197C133.623 116.433 135.037 103.072 137.728 90.5825H166.849V72.7953H142.641C145.564 64.243 149.15 56.2857 153.382 49.1477C165.213 29.196 180.436 18.1816 196.249 18.1351H196.4V0H196.249C173.768 0.0424958 152.988 14.2255 137.745 39.9408" fill="#BB181E"/>
<path d="M92.1848 90.7565H107.745L107.768 90.6356C108.967 84.5414 110.442 78.5509 112.172 72.8139L112.234 72.6214H92.1848V90.7565Z" fill="#BB181E"/>
<path d="M196.353 35.7523H178.434V130.628H196.353V35.7523Z" fill="#BB181E"/>
<path d="M80.9745 0H80.8252C58.3431 0.0424958 37.5628 14.2255 22.321 39.9394C7.92817 64.2072 0.00543976 96.2597 0.00543976 130.195V130.639V130.784H18.2017V130.635V130.195C18.2017 116.451 19.6104 103.104 22.2944 90.633H63.0901V130.636H80.9932V14.604H80.9745V0ZM27.2346 72.7435C30.1544 64.2099 33.734 56.2764 37.9586 49.1477C45.2616 36.8319 53.8587 27.933 63.0901 22.9052V72.7435H27.2346Z" fill="#BB181E"/>
<path d="M362 75.3982L361.977 72.891L344.018 73.045L344.041 75.5523C344.117 84.4777 333.743 105.614 327.649 111.885V89.9902H309.743L293.811 109.271V72.9693H275.848V130.627H293.807V130.607H293.972L309.743 111.583V131H327.642V130.964C331.722 130.898 335.802 128.895 339.779 124.988C350.482 114.461 362.112 88.5095 362 75.4022" fill="#BB181E"/>
</g>
<defs>
<clipPath id="clip0_6_4">
<rect width="362" height="131" fill="white"/>
</clipPath>
</defs>
</svg>
