<svg width="38" height="39" viewBox="0 0 38 39" fill="none" xmlns="http://www.w3.org/2000/svg">
<g clip-path="url(#clip0_13_88)">
<path d="M29.0153 13.1454C28.9985 11.0199 27.725 9.5065 25.664 9.46523C21.3453 9.38268 17.0255 9.38268 12.7046 9.46523C10.6067 9.50994 9.35337 10.9958 9.35337 13.1523C9.3355 17.4379 9.3355 21.7212 9.35337 26.0021C9.35337 28.255 10.781 29.6824 13.013 29.6927C17.135 29.7133 21.256 29.7133 25.3758 29.6927C27.6044 29.6927 28.9985 28.2481 29.0186 25.9815C29.0387 23.8422 29.0186 21.6994 29.0186 19.5566C29.0186 17.4138 29.032 15.2882 29.0153 13.1454ZM19.1324 26.1122C15.4192 26.1122 12.708 23.2746 12.7214 19.4156C12.7214 15.9968 15.7878 12.8806 19.1357 12.8806C22.5574 12.8806 25.6774 16.0518 25.6439 19.5016C25.607 23.3194 22.8523 26.1191 19.1324 26.1122ZM26.0159 13.8299C25.8408 13.8286 25.6679 13.7903 25.5079 13.7171C25.348 13.644 25.2045 13.5377 25.0865 13.405C24.9685 13.2722 24.8785 13.1159 24.8221 12.9457C24.7658 12.7756 24.7444 12.5953 24.7592 12.4163C24.81 12.1275 24.9534 11.8645 25.1665 11.6688C25.3795 11.4732 25.6502 11.3561 25.9354 11.3363C26.224 11.3251 26.5079 11.4131 26.7423 11.5863C26.9766 11.7595 27.1479 12.008 27.229 12.2925C27.2602 12.4771 27.2526 12.6664 27.2066 12.8477C27.1607 13.0291 27.0774 13.1982 26.9625 13.3438C26.8476 13.4895 26.7037 13.6082 26.5404 13.692C26.3771 13.7758 26.1983 13.8228 26.0159 13.8299Z" fill="#0089C4"/>
<path d="M29.5716 0H8.4284C6.19304 0 4.04925 0.911364 2.46861 2.5336C0.887975 4.15583 0 6.35605 0 8.65023V30.3498C0 32.644 0.887975 34.8442 2.46861 36.4664C4.04925 38.0886 6.19304 39 8.4284 39H29.5716C31.8069 39 33.9507 38.0886 35.5314 36.4664C37.112 34.8442 38 32.644 38 30.3498V8.65023C38 6.35605 37.112 4.15583 35.5314 2.5336C33.9507 0.911364 31.8069 0 29.5716 0ZM31.9811 25.7478C31.8973 29.624 29.223 32.2827 25.3858 32.3584C21.3174 32.4318 17.2467 32.4318 13.1738 32.3584C9.4539 32.2862 6.82986 29.5621 6.76954 25.7409C6.69805 21.4622 6.69805 17.1824 6.76954 12.9014C6.82986 8.93915 9.45054 6.40083 13.328 6.36643C15.3622 6.36643 17.3998 6.36643 19.434 6.36643C21.4682 6.36643 23.4086 6.36643 25.3925 6.36643C29.2297 6.38707 31.9074 8.95978 31.9845 12.9014C32.0694 17.1824 32.0682 21.4645 31.9811 25.7478Z" fill="#0089C4"/>
<path d="M19.129 15.6356C17.1585 15.6631 15.3421 17.5307 15.3287 19.5462C15.3153 21.5618 17.2892 23.6013 19.2296 23.5635C21.1699 23.5257 23.0969 21.4654 23.0366 19.4362C22.9763 17.4069 21.0995 15.608 19.129 15.6356Z" fill="#0089C4"/>
</g>
<defs>
<clipPath id="clip0_13_88">
<rect width="38" height="39" fill="white"/>
</clipPath>
</defs>
</svg>
