<svg width="38" height="39" viewBox="0 0 38 39" fill="none" xmlns="http://www.w3.org/2000/svg">
<g clip-path="url(#clip0_13_101)">
<path d="M7.04777 19.34C8.93453 19.9935 10.8247 20.6435 12.7114 21.3039C12.7753 21.3301 12.8445 21.3397 12.9129 21.3319C12.9813 21.3241 13.0467 21.2991 13.1035 21.2592C14.8506 20.1425 16.5966 19.0304 18.3415 17.9229C20.4975 16.5471 22.6546 15.1771 24.8128 13.8128C25.0607 13.6561 25.3182 13.5159 25.5836 13.3932C25.6098 13.3737 25.6395 13.3602 25.6711 13.3533C25.7026 13.3464 25.7352 13.3463 25.7667 13.3531C25.7983 13.3599 25.8282 13.3734 25.8543 13.3927C25.8805 13.4121 25.9025 13.4368 25.9188 13.4654C25.9558 13.5261 25.9735 13.5972 25.9693 13.6687C25.9651 13.7403 25.9392 13.8087 25.8953 13.8644C25.827 13.9475 25.7543 14.0268 25.6774 14.1017L20.4461 19.1095L15.9253 23.4398C15.87 23.4945 15.8325 23.5654 15.818 23.6427C15.608 24.9933 15.3991 26.3439 15.1914 27.6944C15.1511 27.9489 15.1143 28.2035 15.0774 28.458L15.1142 28.4786L18.7001 25.1286L18.8241 25.2214L22.3497 27.9971L24.6654 29.8166C25.0005 30.0745 25.2854 29.9782 25.3591 29.5964C25.6138 28.2413 25.8696 26.8838 26.1265 25.5241L27.1721 20.0416C27.543 18.0995 27.9127 16.1504 28.2814 14.1945L29.0958 9.89866C29.0958 9.85051 29.0957 9.79892 29.1192 9.70605L6.95728 19.2815L7.04777 19.34Z" fill="#0089C4"/>
<path d="M29.5716 0.00683594H8.42844C6.19366 0.00683576 4.05038 0.917726 2.46984 2.53922C0.889299 4.16071 0.00088858 6.36005 0 8.65364V30.3566C-8.75509e-08 31.4924 0.218048 32.6171 0.641658 33.6664C1.06527 34.7157 1.68616 35.6691 2.46886 36.472C3.25155 37.275 4.18069 37.9118 5.20326 38.3462C6.22582 38.7805 7.32176 39.0038 8.42844 39.0034H29.5716C30.6782 39.0038 31.7742 38.7805 32.7967 38.3462C33.8193 37.9118 34.7485 37.275 35.5312 36.472C36.3139 35.6691 36.9348 34.7157 37.3584 33.6664C37.782 32.6171 38 31.4924 38 30.3566V8.65364C37.9991 6.36005 37.1107 4.16071 35.5302 2.53922C33.9497 0.917726 31.8063 0.00683576 29.5716 0.00683594ZM30.9758 10.9649C30.7479 12.2307 30.4999 13.4964 30.2586 14.7483C30.0475 15.8593 29.833 16.9737 29.6218 18.0846C29.4107 19.1956 29.1828 20.3822 28.9516 21.5241C28.6746 22.987 28.3953 24.4511 28.1138 25.9163C27.8423 27.3471 27.5943 28.7848 27.2927 30.2087C27.2144 30.602 27.0333 30.966 26.7688 31.2616C26.5044 31.5573 26.1665 31.7736 25.7914 31.8872C25.4646 32.0029 25.1187 32.0513 24.7736 32.0295C24.4285 32.0076 24.0911 31.916 23.7806 31.7599C23.6494 31.6875 23.5268 31.5998 23.4153 31.4985L18.9045 27.9455L18.7772 27.8596C18.442 28.1829 18.0835 28.5027 17.7416 28.826C17.1149 29.4073 16.5017 30.0058 15.8649 30.5733C15.6868 30.7297 15.4768 30.8432 15.2505 30.9058C15.0241 30.9683 14.787 30.9781 14.5564 30.9346C14.3258 30.8911 14.1077 30.7953 13.9178 30.6543C13.7279 30.5132 13.571 30.3305 13.4587 30.1193C13.207 29.603 13.0082 29.0612 12.8655 28.5027C12.3271 26.7073 11.792 24.9119 11.2602 23.1165C11.2494 23.0755 11.2277 23.0384 11.1975 23.0093C11.1673 22.9801 11.1299 22.9601 11.0894 22.9515C9.5031 22.408 7.91905 21.8611 6.33726 21.3108C5.73972 21.1302 5.22642 20.7329 4.89284 20.193C4.66959 19.8263 4.58423 19.3886 4.6527 18.9619C4.72117 18.5352 4.93881 18.1487 5.26487 17.8748C5.64786 17.5712 6.07543 17.3321 6.53161 17.1663L16.2101 12.9805L23.7471 9.73018C25.2551 9.08356 26.7632 8.43007 28.2679 7.79033C28.5458 7.65052 28.8496 7.57357 29.159 7.56467C29.4683 7.55577 29.7758 7.61513 30.0609 7.73874C30.3923 7.87555 30.6742 8.11432 30.8681 8.42225C31.0619 8.73019 31.1581 9.09218 31.1433 9.45847C31.1347 9.96271 31.0786 10.4649 30.9758 10.9581V10.9649Z" fill="#0089C4"/>
</g>
<defs>
<clipPath id="clip0_13_101">
<rect width="38" height="39" fill="white"/>
</clipPath>
</defs>
</svg>
