<svg width="363" height="72" viewBox="0 0 363 72" fill="none" xmlns="http://www.w3.org/2000/svg">
<path d="M113.898 40.4037H94.966V60.1055H85.0781V11.8945H116.273V19.9398H94.966V32.3844H113.898V40.4037Z" fill="white"/>
<path d="M130.453 60.1055H120.527V10.4766H130.453V60.1055Z" fill="white"/>
<path d="M156.99 56.0714C154.713 58.7608 151.57 60.1055 147.561 60.1055C143.863 60.1055 141.042 59.0781 139.099 57.0234C137.155 54.9688 136.164 51.9567 136.125 47.9872V26.0742H145.329V47.6564C145.329 51.1418 146.964 52.8818 150.235 52.8764C153.361 52.8764 155.505 51.8276 156.665 49.7299V26.0742H165.902V59.452H157.24L156.99 56.0714Z" fill="white"/>
<path d="M171.577 15.3733C171.557 14.7206 171.664 14.0706 171.893 13.4655C172.122 12.8603 172.467 12.3135 172.905 11.8604C173.927 10.9654 175.206 10.4766 176.526 10.4766C177.845 10.4766 179.124 10.9654 180.147 11.8604C181.014 12.7997 181.5 14.0684 181.5 15.3905C181.5 16.7127 181.014 17.9813 180.147 18.9206C179.133 19.8169 177.86 20.307 176.546 20.307C175.232 20.307 173.959 19.8169 172.945 18.9206C172.496 18.4671 172.142 17.9164 171.906 17.3048C171.67 16.6933 171.558 16.0349 171.577 15.3733ZM180.971 60.1055H172.097V24.5723H180.971V60.1055Z" fill="white"/>
<path d="M187.172 41.9323C187.172 36.5535 188.327 32.2722 190.637 29.0882C191.721 27.5428 193.152 26.2986 194.804 25.4645C196.456 24.6305 198.279 24.232 200.113 24.304C201.628 24.2678 203.131 24.5867 204.513 25.2372C205.895 25.8878 207.119 26.8534 208.096 28.0631V10.4766H216.949V59.4271H208.966L208.535 55.7598C207.551 57.1332 206.268 58.2431 204.793 58.998C203.317 59.7529 201.692 60.1314 200.049 60.1022C198.236 60.1469 196.439 59.73 194.815 58.8878C193.19 58.0456 191.786 56.8033 190.724 55.268C188.356 52.0674 187.172 47.6222 187.172 41.9323ZM195.993 42.6157C195.993 45.8497 196.526 48.3279 197.59 50.0504C198.084 50.8774 198.78 51.5525 199.606 52.0065C200.432 52.4605 201.359 52.6771 202.292 52.6342C203.491 52.7191 204.686 52.4198 205.717 51.7764C206.749 51.1329 207.568 50.1759 208.064 49.0335V35.3977C207.581 34.2592 206.774 33.3032 205.753 32.6591C204.732 32.0151 203.546 31.7142 202.356 31.7971C198.114 31.7748 195.993 35.3755 195.993 42.599V42.6157Z" fill="white"/>
<path d="M241.055 43.0898H222.621V34.582H241.055V43.0898Z" fill="white"/>
<path d="M257.176 52.1251H279.34V60.1055H246.727V11.8945H257.176V52.1251Z" fill="white"/>
<path d="M282.18 15.3598C282.157 14.7069 282.281 14.0567 282.543 13.4514C282.806 12.846 283.201 12.299 283.704 11.8458C284.873 10.9599 286.331 10.4766 287.836 10.4766C289.34 10.4766 290.798 10.9599 291.967 11.8458C292.962 12.7854 293.52 14.0544 293.52 15.377C293.52 16.6995 292.962 17.9686 291.967 18.9082C290.804 19.8063 289.343 20.2975 287.836 20.2975C286.328 20.2975 284.867 19.8063 283.704 18.9082C283.196 18.4517 282.797 17.8993 282.534 17.2875C282.271 16.6757 282.151 16.0186 282.18 15.3598ZM292.949 60.1055H282.777V24.5615H292.949V60.1055Z" fill="white"/>
<path d="M305.851 25.3114L306.17 29.3316C307.451 27.8186 309.102 26.6067 310.989 25.7953C312.876 24.9839 314.945 24.5961 317.026 24.6638C321.025 24.6638 324.005 25.7459 325.965 27.9102C327.925 30.0745 328.926 33.3126 328.969 37.6243V60.1055H318.88V37.8514C318.88 35.8721 318.414 34.4396 317.483 33.5537C316.552 32.6678 315.012 32.2136 312.863 32.1912C311.563 32.1443 310.274 32.4348 309.144 33.0295C308.014 33.6243 307.088 34.4995 306.472 35.5553V60.097H296.355V25.3114H305.851Z" fill="white"/>
<path d="M348.862 60.1047C343.817 60.1047 339.713 58.5679 336.551 55.4942C333.389 52.4206 331.808 48.3251 331.808 43.2079V42.3238C331.752 39.1405 332.438 35.9875 333.81 33.1111C335.038 30.5168 337.009 28.3409 339.475 26.8564C342.009 25.3693 344.907 24.6086 347.848 24.6586C352.55 24.6586 356.249 26.1321 358.946 29.079C361.643 32.026 362.994 36.2068 363 41.6215V45.3562H341.111C341.319 47.4115 342.273 49.3211 343.795 50.7268C345.356 52.098 347.387 52.8198 349.468 52.7429C351.059 52.8126 352.643 52.5024 354.088 51.8383C355.533 51.1742 356.797 50.1754 357.775 48.9255L362.269 53.9078C360.842 55.8833 358.912 57.4459 356.678 58.4357C354.229 59.559 351.559 60.129 348.862 60.1047ZM347.815 32.0122C346.986 31.9827 346.16 32.1321 345.394 32.4501C344.629 32.7682 343.941 33.2474 343.379 33.8547C342.134 35.3483 341.378 37.1847 341.211 39.1179H353.962V38.3908C354.029 36.6681 353.435 34.9845 352.301 33.6813C351.711 33.1073 351.008 32.6623 350.235 32.3749C349.463 32.0875 348.638 31.9639 347.815 32.0122Z" fill="white"/>
<path d="M0 0.550781V71.4492H68.0625V0.550781H0ZM14.583 64.253H7.12V34.8716H14.583V64.253ZM14.583 18.7672V26.9429H7.12V8.06219H19.3269C17.8401 9.40579 16.6489 11.054 15.8313 12.8988C15.0138 14.7436 14.5884 16.7434 14.583 18.7672ZM23.5353 64.253V34.8716H32.4458V26.9429H23.5353V18.7672C23.5441 18.0168 23.6979 17.2754 23.9882 16.5855C24.2784 15.8956 24.6993 15.2707 25.2268 14.7463C25.7544 14.222 26.3782 13.8086 27.0627 13.5297C27.7472 13.2508 28.479 13.1119 29.2163 13.1209H38.7542V52.2023C38.7558 54.5795 39.3284 56.9202 40.4221 59.0205C41.5157 61.1209 43.0974 62.9172 45.0292 64.253H23.5353ZM60.6915 57.8572H53.0862C51.6379 57.8303 50.2591 57.2199 49.2522 56.1599C48.2453 55.0999 47.6925 53.6767 47.7149 52.2023V8.06219H60.6915V57.8572Z" fill="white"/>
</svg>
