<svg width="54" height="52" viewBox="0 0 54 52" fill="none" xmlns="http://www.w3.org/2000/svg">
<g clip-path="url(#clip0_8_67)">
<path d="M25.1879 39.8887V35.3027H21.0876L25.1879 39.8887Z" fill="#0089C4"/>
<path d="M19.4303 27.7955C19.7113 29.3685 19.997 30.9415 20.297 32.6062H25.1927V26.915H19.3112C19.3589 27.2682 19.3827 27.5295 19.4303 27.7955Z" fill="#0089C4"/>
<path d="M25.2832 15.9957V11.7583L21.5829 15.9957H25.2832Z" fill="#0089C4"/>
<path d="M38.6224 15.8993C36.6926 13.4422 33.899 11.7466 30.7646 11.1299C32.8981 14.0511 34.2077 17.4998 38.6224 15.8993Z" fill="#0089C4"/>
<path d="M21.7924 18.3714C21.4557 18.4531 21.1427 18.6075 20.877 18.8228C20.6114 19.0381 20.4 19.3087 20.2589 19.6142C19.8421 21.1772 19.5099 22.7599 19.2636 24.3561H25.2355V18.3118C24.0259 18.3118 22.8782 18.1742 21.7924 18.3714Z" fill="#0089C4"/>
<path d="M22.1639 11.3271C19.1398 12.2168 16.7586 13.6889 15.0204 16.1699C19.1541 17.0917 20.8018 14.574 22.1639 11.3271Z" fill="#0089C4"/>
<path d="M18.0683 18.8068C13.7441 17.1192 11.7772 18.7793 11.4772 24.365H16.9777C17.3491 22.471 17.7111 20.632 18.0683 18.8068Z" fill="#0089C4"/>
<path d="M14.868 35.4493C16.73 37.6277 18.8397 39.3841 21.9591 40.1499C19.4684 35.1283 18.2968 34.3762 14.868 35.4493Z" fill="#0089C4"/>
<path d="M16.9682 26.9287H11.2534C12.7535 33.3995 12.4059 33.1335 18.0207 32.6061C17.6778 30.7213 17.3253 28.8456 16.9682 26.9287Z" fill="#0089C4"/>
<path d="M35.627 32.8126C37.0222 32.8709 38.4197 32.8541 39.813 32.7621C40.1063 32.7024 40.3818 32.5793 40.6186 32.4021C40.8553 32.225 41.0472 31.9984 41.1798 31.7395C41.7751 30.2124 42.1799 28.6073 42.6847 26.938H36.8032C36.408 28.8503 36.0461 30.6939 35.627 32.8126Z" fill="#0089C4"/>
<path d="M35.4841 18.472C35.9603 20.5862 36.3603 22.4572 36.7842 24.3696H42.6228C42.0799 22.5627 41.6227 20.9163 41.0655 19.2975C40.9867 19.1062 40.8626 18.9352 40.703 18.7982C40.5435 18.6613 40.3528 18.5621 40.1464 18.5087C38.6701 18.4216 37.189 18.472 35.4841 18.472Z" fill="#0089C4"/>
<path d="M31.0885 40.2323C33.803 40.081 37.3652 37.7743 38.7368 35.2749C34.2173 34.6558 34.6459 34.8026 31.0885 40.2323Z" fill="#0089C4"/>
<path d="M42.0416 9.12908e-07H11.9962C10.4235 -0.000601475 8.86612 0.297162 7.413 0.876281C5.95988 1.4554 4.63947 2.30453 3.52722 3.37516C2.41496 4.4458 1.5327 5.71695 0.930727 7.11602C0.328756 8.51509 0.0188979 10.0146 0.018898 11.5291V40.4664C0.0201607 43.5245 1.28258 46.4569 3.52861 48.6189C5.77464 50.7809 8.82042 51.9954 11.9962 51.9954H42.0416C45.2169 51.9954 48.2622 50.7808 50.5074 48.6186C52.7527 46.4565 54.0141 43.5241 54.0141 40.4664V11.5291C54.0148 10.0149 53.7055 8.5154 53.104 7.11636C52.5026 5.71732 51.6207 4.44612 50.5088 3.37543C49.397 2.30474 48.0769 1.45554 46.624 0.876365C45.1712 0.297189 43.6141 -0.000601749 42.0416 9.12908e-07ZM26.8308 43.1079C17.2204 43.1079 9.11969 35.1604 9.11969 25.7226C9.14228 21.1716 11.0313 16.8135 14.3754 13.5976C17.7195 10.3817 22.2476 8.56846 26.9736 8.55278C36.7078 8.55278 44.6752 16.3489 44.6752 25.8601C44.6609 35.2154 36.5126 43.0895 26.8022 43.0941L26.8308 43.1079Z" fill="#0089C4"/>
<path d="M27.9406 11.708V15.9133H32.179C30.6884 14.4275 29.5074 13.2672 27.9406 11.708Z" fill="#0089C4"/>
<path d="M27.8548 35.2842V39.4115L31.7837 35.2842H27.8548Z" fill="#0089C4"/>
<path d="M33.1887 18.6646H27.8548V24.3419H34.4221L33.1887 18.6646Z" fill="#0089C4"/>
<path d="M34.122 26.9609H27.8406V32.6521C33.2268 33.4271 34.7792 32.0009 34.122 26.9609Z" fill="#0089C4"/>
</g>
<defs>
<clipPath id="clip0_8_67">
<rect width="54" height="52" fill="white"/>
</clipPath>
</defs>
</svg>
