<svg width="38" height="39" viewBox="0 0 38 39" fill="none" xmlns="http://www.w3.org/2000/svg">
<g clip-path="url(#clip0_13_92)">
<path d="M29.5716 0H8.42844C6.19366 -1.81305e-07 4.05034 0.91089 2.4698 2.53238C0.889258 4.15387 0.00088858 6.3532 0 8.64679V30.3498C-8.75511e-08 31.4856 0.218048 32.6102 0.641658 33.6595C1.06527 34.7088 1.68612 35.6622 2.46882 36.4652C3.25151 37.2682 4.18069 37.905 5.20326 38.3393C6.22582 38.7737 7.32176 38.997 8.42844 38.9966H14.8495C14.8495 34.6147 14.8495 30.2317 14.8495 25.8475C14.8495 25.6583 14.7958 25.6102 14.6149 25.6102C13.0029 25.6102 11.3876 25.6102 9.7723 25.6102C9.55782 25.6102 9.50754 25.5448 9.50754 25.335C9.50754 23.3883 9.50754 21.4393 9.50754 19.488C9.50754 19.2713 9.56452 19.2094 9.7723 19.2128C11.3876 19.2128 13.0029 19.2128 14.6182 19.2128C14.8025 19.2128 14.8495 19.1646 14.8495 18.9755C14.8495 17.5309 14.8495 16.0898 14.8495 14.6452C14.8413 13.7554 14.9346 12.8677 15.1276 12.0003C15.4492 10.4168 16.2744 8.98791 17.4735 7.93827C18.2069 7.31791 19.0567 6.85898 19.9702 6.59C20.5957 6.38229 21.2467 6.26649 21.9039 6.24605C22.4669 6.24605 23.0299 6.18758 23.5795 6.18758C24.1291 6.18758 24.7893 6.2151 25.3959 6.24605C25.8952 6.27357 26.4013 6.31828 26.8939 6.35956C27.0267 6.38464 27.1611 6.39958 27.2961 6.40427C27.477 6.40427 27.5373 6.44898 27.5373 6.63815C27.5373 8.39227 27.5373 10.1498 27.5373 11.904C27.5373 12.0862 27.477 12.1275 27.3128 12.1275C26.2706 12.1275 25.2283 12.1275 24.1861 12.1275C23.8615 12.1285 23.5375 12.1573 23.2176 12.2135C21.857 12.4612 21.3141 13.2729 21.2638 14.5523C21.2068 16.0519 21.237 17.555 21.2336 19.0546C21.2336 19.0959 21.2336 19.1337 21.2504 19.1956H27.1151C27.3664 19.1956 27.3698 19.1956 27.3363 19.457C27.2626 19.9936 27.1821 20.5301 27.1117 21.0701C27.0246 21.7752 26.9509 22.4837 26.8638 23.1888C26.7766 23.8939 26.6828 24.5852 26.599 25.2869C26.5655 25.5758 26.5755 25.5758 26.294 25.5758H21.2135V38.9725H29.5481C30.6548 38.9729 31.7507 38.7496 32.7733 38.3153C33.7959 37.8809 34.725 37.2441 35.5077 36.4411C36.2904 35.6381 36.9113 34.6848 37.3349 33.6355C37.7585 32.5862 37.9765 31.4615 37.9765 30.3257V8.64679C37.9757 6.35737 37.0905 4.16168 35.515 2.54088C33.9396 0.920077 31.8023 0.00637197 29.5716 0Z" fill="#0089C4"/>
</g>
<defs>
<clipPath id="clip0_13_92">
<rect width="38" height="39" fill="white"/>
</clipPath>
</defs>
</svg>
