<svg width="38" height="39" viewBox="0 0 38 39" fill="none" xmlns="http://www.w3.org/2000/svg">
<g clip-path="url(#clip0_13_94)">
<path d="M29.5716 0H8.42852C6.19316 0 4.04937 0.911364 2.46874 2.5336C0.888097 4.15583 0.00012207 6.35606 0.00012207 8.65024V30.3498C0.00012207 32.6439 0.888097 34.8442 2.46874 36.4664C4.04937 38.0886 6.19316 39 8.42852 39H29.5716C31.807 39 33.9508 38.0886 35.5315 36.4664C37.1121 34.8442 38.0001 32.6439 38.0001 30.3498V8.65024C38.0001 7.51428 37.7821 6.38943 37.3585 5.33993C36.9349 4.29044 36.3141 3.33685 35.5315 2.5336C34.7488 1.73035 33.8197 1.09317 32.7971 0.658459C31.7745 0.223745 30.6785 0 29.5716 0ZM18.8107 6.23574C20.5739 6.24302 22.2623 6.96767 23.5056 8.25077C24.7489 9.53387 25.4456 11.2707 25.4429 13.0802C25.4434 13.9791 25.2707 14.8692 24.9348 15.6993C24.5989 16.5295 24.1065 17.2833 23.4858 17.9175C22.8651 18.5516 22.1284 19.0536 21.3181 19.3945C20.5077 19.7355 19.6396 19.9087 18.7638 19.9041C17.0025 19.8996 15.3149 19.1776 14.072 17.8967C12.829 16.6159 12.1323 14.8811 12.135 13.0734C12.1341 12.174 12.3063 11.2834 12.6416 10.4525C12.977 9.62158 13.4689 8.86684 14.0891 8.23154C14.7094 7.59625 15.4458 7.09291 16.256 6.75042C17.0663 6.40792 17.9345 6.23302 18.8107 6.23574ZM21.6593 25.7065C22.8412 26.9195 24.0242 28.1347 25.2083 29.3523C25.411 29.5591 25.5667 29.8094 25.6643 30.0852C25.7618 30.3609 25.7988 30.6554 25.7725 30.9476C25.7463 31.2397 25.6575 31.5223 25.5124 31.7751C25.3674 32.0279 25.1697 32.2447 24.9335 32.41C24.5774 32.665 24.1471 32.7877 23.7138 32.7577C23.2806 32.7277 22.8703 32.5468 22.5508 32.2449C21.6794 31.3816 20.8315 30.4908 19.9736 29.6137L18.9347 28.5475L18.7907 28.4065L18.6231 28.5681C17.4591 29.7605 16.2973 30.9563 15.1378 32.1555C14.9644 32.342 14.7566 32.4913 14.5264 32.5947C14.2963 32.698 14.0484 32.7533 13.7973 32.7574C13.543 32.7647 13.2899 32.7205 13.0523 32.6272C12.8147 32.534 12.5975 32.3936 12.4129 32.214C12.2283 32.0345 12.08 31.8193 11.9765 31.5809C11.8731 31.3424 11.8165 31.0854 11.8099 30.8244C11.8 30.5402 11.8497 30.2571 11.9555 29.9942C12.0613 29.7314 12.2208 29.4949 12.4232 29.3007C13.5828 28.1176 14.7323 26.9309 15.8884 25.7443C15.9585 25.6832 16.0324 25.6269 16.1096 25.5758L16.0761 25.5104C15.999 25.4864 15.9253 25.4589 15.8482 25.4382C14.57 25.1105 13.3506 24.5764 12.2356 23.8561C11.8678 23.6211 11.5875 23.2664 11.4392 22.8487C11.291 22.4309 11.2835 21.9743 11.4179 21.5516C11.5515 21.1328 11.8161 20.7709 12.1706 20.5222C12.525 20.2734 12.9496 20.1517 13.3783 20.1758C13.736 20.2038 14.0813 20.3219 14.3837 20.5198C15.5054 21.2364 16.7794 21.6635 18.0969 21.7649C19.9143 21.9264 21.7334 21.4748 23.278 20.4785C23.6022 20.2668 23.9796 20.1569 24.3638 20.1621C24.8318 20.1728 25.2803 20.3564 25.6269 20.6793C25.9735 21.0022 26.195 21.4426 26.2505 21.9196C26.3025 22.3051 26.2406 22.6978 26.0727 23.0467C25.9048 23.3956 25.6387 23.6848 25.3088 23.8767C24.224 24.5783 23.0374 25.0985 21.7934 25.4176L21.4817 25.5036L21.6593 25.7065Z" fill="#0089C4"/>
<path d="M18.7638 15.9248C19.5021 15.9294 20.2121 15.6332 20.738 15.1013C21.2638 14.5693 21.5626 13.845 21.5688 13.0873C21.568 12.3363 21.28 11.6156 20.7666 11.0804C20.2533 10.5452 19.5557 10.2383 18.8241 10.2256C18.0837 10.2211 17.3716 10.5178 16.844 11.051C16.3163 11.5841 16.0161 12.3102 16.009 13.0701C16.0125 13.8214 16.303 14.5413 16.8181 15.0751C17.3332 15.6089 18.0318 15.914 18.7638 15.9248Z" fill="#0089C4"/>
</g>
<defs>
<clipPath id="clip0_13_94">
<rect width="38" height="39" fill="white"/>
</clipPath>
</defs>
</svg>
