<svg width="38" height="39" viewBox="0 0 38 39" fill="none" xmlns="http://www.w3.org/2000/svg">
<g clip-path="url(#clip0_13_97)">
<path d="M29.5716 6.15546e-06H8.4285C7.32053 -0.00135034 6.22314 0.221508 5.19918 0.655831C4.17522 1.09015 3.24474 1.72742 2.46098 2.53117C1.67722 3.33492 1.05557 4.28937 0.631567 5.33994C0.207567 6.3905 -0.0104504 7.51656 -0.0100091 8.65368V30.3532C-0.0100092 31.489 0.208039 32.6137 0.631649 33.663C1.05526 34.7123 1.67611 35.6657 2.45881 36.4686C3.2415 37.2716 4.17068 37.9085 5.19325 38.3428C6.21581 38.7771 7.31175 39.0005 8.41843 39H29.5616C30.6682 39.0005 31.7642 38.7771 32.7867 38.3428C33.8093 37.9085 34.7384 37.2716 35.5211 36.4686C36.3038 35.6657 36.9247 34.7123 37.3483 33.663C37.7719 32.6137 37.99 31.489 37.99 30.3532V8.65368C37.9909 6.36069 37.1046 4.16114 35.5261 2.53846C33.9475 0.915783 31.8058 0.00274116 29.5716 6.15546e-06ZM32.6447 28.7126C32.5125 28.7304 32.3793 28.7396 32.2459 28.7401C31.2405 28.7401 30.2553 28.7401 29.2633 28.7401C29.0085 28.752 28.7541 28.7092 28.5164 28.6145C28.2786 28.5197 28.0627 28.375 27.8826 28.1898C27.4871 27.7839 27.1051 27.3643 26.7264 26.9413C25.957 26.0341 25.1163 25.1932 24.2129 24.427C23.8104 24.0707 23.3586 23.7775 22.8724 23.5569C22.5794 23.4353 22.2592 23.3996 21.9475 23.4537C21.8497 23.4634 21.7576 23.5051 21.6846 23.5726C21.6116 23.64 21.5616 23.7298 21.542 23.8286C21.4937 24.0068 21.4667 24.1905 21.4615 24.3754C21.4615 25.3694 21.4615 26.3634 21.4615 27.3574C21.4615 27.4907 21.4548 27.6239 21.4414 27.7564C21.4332 27.9183 21.3795 28.0743 21.2867 28.2056C21.1939 28.3368 21.0661 28.4377 20.9186 28.4959C20.5849 28.6294 20.2311 28.7027 19.873 28.7126C17.9189 28.835 15.9737 28.356 14.2865 27.3368C12.5309 26.312 11.0107 24.9114 9.8293 23.2301C8.34284 21.182 7.06067 18.9858 6.00214 16.6745C5.45411 15.5033 5.01214 14.2829 4.68176 13.0287C4.61809 12.7742 4.57118 12.5127 4.52762 12.2514C4.40697 11.4809 4.73201 11.0716 5.49945 11.0647C6.61542 11.0647 7.7314 11.0647 8.85072 11.0647C8.91774 11.0647 8.98816 11.0647 9.05518 11.0854C9.21994 11.0965 9.37951 11.149 9.51978 11.2384C9.66006 11.3278 9.7767 11.4512 9.85945 11.5979C10.0048 11.8578 10.1271 12.1306 10.2248 12.413C10.9237 14.4934 11.8429 16.4888 12.9661 18.3633C13.3976 19.1102 13.9127 19.8028 14.501 20.4269C14.6814 20.5961 14.8728 20.7524 15.074 20.8947C15.1461 20.9446 15.2269 20.9797 15.312 20.9979C15.3786 21.026 15.4508 21.0379 15.5227 21.0326C15.5946 21.0273 15.6643 21.0049 15.7264 20.9672C15.7884 20.9295 15.8411 20.8776 15.8802 20.8155C15.9194 20.7534 15.944 20.6828 15.9521 20.6092C16.0018 20.3719 16.0265 20.1297 16.0258 19.8869C16.0258 18.2635 16.0258 16.6435 16.0258 15.0201C16.0357 14.1382 15.7332 13.2827 15.1746 12.6125C15.079 12.4988 14.9916 12.3781 14.9132 12.2514C14.8329 12.1375 14.785 12.003 14.775 11.8628C14.765 11.7226 14.7933 11.5823 14.8566 11.4577C14.9199 11.333 15.0158 11.229 15.1336 11.1571C15.2513 11.0853 15.3862 11.0485 15.5231 11.051H20.483C21.1532 11.051 21.4146 11.3089 21.4414 11.9865C21.4616 12.5024 21.4414 13.0184 21.4414 13.5377C21.4414 14.1603 21.4414 14.7828 21.4414 15.4053C21.4414 16.4819 21.4414 17.555 21.4414 18.6281C21.4389 18.8267 21.4637 19.0247 21.5152 19.2162C21.5273 19.2976 21.5586 19.3747 21.6063 19.4409C21.6541 19.507 21.7168 19.5602 21.7892 19.5958C21.8615 19.6314 21.9412 19.6483 22.0214 19.6451C22.1015 19.6419 22.1797 19.6187 22.2491 19.5774C22.4343 19.4971 22.6071 19.3893 22.7618 19.2575C23.4202 18.6837 23.9958 18.0167 24.471 17.2764C25.5795 15.641 26.5226 13.8939 27.286 12.0622C27.3095 12.0072 27.3296 11.9556 27.3531 11.904C27.4519 11.6485 27.6248 11.4303 27.8483 11.279C28.0719 11.1276 28.3354 11.0505 28.6031 11.0579C29.7291 11.0579 30.8585 11.0579 31.9879 11.0579C32.0906 11.0614 32.1927 11.0753 32.2928 11.0991C32.3936 11.1105 32.4907 11.1444 32.5773 11.1984C32.6639 11.2525 32.738 11.3253 32.7942 11.4119C32.8504 11.4985 32.8875 11.5966 32.9028 11.6994C32.918 11.8023 32.9112 11.9073 32.8827 12.0072C32.7838 12.5003 32.6191 12.9772 32.3934 13.4242C31.7804 14.6749 31.0909 15.8846 30.329 17.046C29.7693 17.9265 29.1862 18.7898 28.6132 19.6634C28.5121 19.8222 28.4192 19.9864 28.335 20.1552C28.2745 20.2683 28.2448 20.3959 28.2489 20.5248C28.253 20.6537 28.2909 20.7791 28.3585 20.8878C28.4543 21.0488 28.5666 21.1987 28.6936 21.335C29.5616 22.2911 30.4463 23.2335 31.3076 24.2C31.9493 24.9095 32.5238 25.6799 33.0234 26.501C33.2459 26.8343 33.402 27.2096 33.4825 27.6051C33.5174 27.7363 33.522 27.874 33.4961 28.0074C33.4701 28.1407 33.4143 28.2661 33.333 28.3735C33.2518 28.4809 33.1473 28.5675 33.0278 28.6263C32.9084 28.6852 32.7772 28.7147 32.6447 28.7126Z" fill="#0089C4"/>
</g>
<defs>
<clipPath id="clip0_13_97">
<rect width="38" height="39" fill="white"/>
</clipPath>
</defs>
</svg>
