<svg width="39" height="39" viewBox="0 0 39 39" fill="none" xmlns="http://www.w3.org/2000/svg">
<g clip-path="url(#clip0_13_85)">
<path d="M30.3498 0H8.64681C6.35322 0.000911964 4.15386 0.91267 2.53237 2.5348C0.91088 4.15694 1.07615e-05 6.35664 1.09428e-05 8.65023V30.3498C-0.00179723 31.4866 0.220498 32.6126 0.654188 33.6635C1.08788 34.7144 1.72444 35.6694 2.5275 36.4741C3.33056 37.2787 4.28437 37.9172 5.33436 38.353C6.38436 38.7888 7.50998 39.0133 8.64681 39.0138H30.3498C31.4856 39.0138 32.6102 38.79 33.6595 38.3552C34.7088 37.9205 35.6622 37.2832 36.4652 36.4799C37.2682 35.6767 37.905 34.723 38.3394 33.6736C38.7737 32.6241 38.997 31.4993 38.9966 30.3635V8.66399C38.9988 7.52703 38.7769 6.40079 38.3433 5.34973C37.9098 4.29866 37.2732 3.34342 36.4701 2.53867C35.6669 1.73392 34.7129 1.09545 33.6627 0.659835C32.6125 0.224217 31.4867 -2.24865e-06 30.3498 0ZM32.6026 19.7631H32.5338C32.5338 21.531 32.6645 23.3126 32.5063 25.0702C32.2587 27.7977 30.9517 28.9946 28.1863 29.0256C22.4539 29.0875 16.7123 29.0875 10.9616 29.0256C8.37165 29.0015 6.83421 27.4744 6.7895 24.8982C6.70924 21.3028 6.70924 17.7086 6.7895 14.1155C6.84109 11.5462 8.12743 10.1739 10.8584 10.0742C16.4509 9.87467 22.0504 9.79213 27.6498 9.79557C30.2397 9.79557 32.4857 12.2204 32.5889 14.8757C32.6542 16.5025 32.6026 18.1328 32.6026 19.7528V19.7631Z" fill="#0089C4"/>
<path d="M16.3752 24.4681L24.5199 19.5016L16.3752 14.6382V24.4681Z" fill="#0089C4"/>
</g>
<defs>
<clipPath id="clip0_13_85">
<rect width="39" height="39" fill="white"/>
</clipPath>
</defs>
</svg>
