<svg width="361" height="71" viewBox="0 0 361 71" fill="none" xmlns="http://www.w3.org/2000/svg">
<path d="M113.283 39.8413H94.4564V59.4336H84.6235V11.4907H115.645V19.4912H94.4564V31.8666H113.283V39.8413Z" fill="#0089C3"/>
<path d="M129.746 59.4335H119.876V10.0806H129.746V59.4335Z" fill="#0089C3"/>
<path d="M156.136 55.4222C153.872 58.0966 150.746 59.4338 146.759 59.4338C143.081 59.4338 140.276 58.4122 138.344 56.3689C136.411 54.3257 135.425 51.3303 135.387 47.3829V25.5918H144.539V47.054C144.539 50.52 146.166 52.2503 149.418 52.245C152.527 52.245 154.658 51.202 155.812 49.1159V25.5918H164.998V58.7839H156.384L156.136 55.4222Z" fill="#0089C3"/>
<path d="M170.641 14.9501C170.621 14.301 170.728 13.6546 170.956 13.0528C171.183 12.451 171.526 11.9073 171.962 11.4567C172.979 10.5667 174.251 10.0806 175.563 10.0806C176.875 10.0806 178.147 10.5667 179.164 11.4567C180.026 12.3908 180.509 13.6524 180.509 14.9672C180.509 16.282 180.026 17.5436 179.164 18.4777C178.155 19.369 176.889 19.8563 175.583 19.8563C174.276 19.8563 173.01 19.369 172.002 18.4777C171.555 18.0267 171.203 17.479 170.968 16.8709C170.734 16.2627 170.622 15.608 170.641 14.9501ZM179.983 59.4335H171.158V24.0979H179.983V59.4335Z" fill="#0089C3"/>
<path d="M186.15 41.3614C186.15 36.0125 187.298 31.755 189.595 28.5888C190.674 27.0519 192.097 25.8146 193.739 24.9852C195.382 24.1558 197.195 23.7595 199.018 23.8312C200.525 23.7951 202.02 24.1123 203.394 24.7592C204.768 25.4061 205.986 26.3663 206.957 27.5693V10.0806H215.761V58.7589H207.823L207.394 55.112C206.415 56.4778 205.14 57.5815 203.672 58.3322C202.205 59.0829 200.589 59.4593 198.955 59.4303C197.152 59.4747 195.365 59.0602 193.75 58.2226C192.134 57.3851 190.738 56.1497 189.682 54.623C187.327 51.4402 186.15 47.0196 186.15 41.3614ZM194.922 42.041C194.922 45.257 195.451 47.7214 196.51 49.4343C197.001 50.2568 197.693 50.9281 198.515 51.3795C199.336 51.831 200.258 52.0464 201.186 52.0038C202.378 52.0882 203.566 51.7906 204.592 51.1507C205.618 50.5109 206.432 49.5592 206.925 48.4231V34.8632C206.445 33.7309 205.643 32.7802 204.627 32.1398C203.612 31.4994 202.433 31.2001 201.249 31.2825C197.031 31.2604 194.922 34.8411 194.922 42.0244V42.041Z" fill="#0089C3"/>
<path d="M239.733 42.5127H221.402V34.0522H239.733V42.5127Z" fill="#0089C3"/>
<path d="M255.764 51.4976H277.805V59.4336H245.373V11.4907H255.764V51.4976Z" fill="#0089C3"/>
<path d="M280.63 14.9366C280.607 14.2873 280.73 13.6408 280.991 13.0388C281.252 12.4369 281.645 11.8929 282.145 11.4422C283.307 10.5612 284.758 10.0806 286.254 10.0806C287.749 10.0806 289.2 10.5612 290.362 11.4422C291.351 12.3766 291.906 13.6386 291.906 14.9538C291.906 16.2689 291.351 17.5309 290.362 18.4653C289.206 19.3584 287.753 19.8469 286.254 19.8469C284.754 19.8469 283.302 19.3584 282.145 18.4653C281.639 18.0114 281.243 17.462 280.982 16.8536C280.72 16.2452 280.6 15.5918 280.63 14.9366ZM291.339 59.4335H281.223V24.0872H291.339V59.4335Z" fill="#0089C3"/>
<path d="M304.169 24.8332L304.486 28.831C305.76 27.3264 307.402 26.1213 309.278 25.3144C311.155 24.5075 313.212 24.1219 315.282 24.1891C319.259 24.1891 322.222 25.2653 324.171 27.4175C326.12 29.5698 327.116 32.7898 327.158 37.0776V59.4337H317.125V37.3034C317.125 35.3351 316.662 33.9105 315.736 33.0296C314.81 32.1486 313.278 31.697 311.142 31.6747C309.849 31.628 308.567 31.9169 307.443 32.5084C306.32 33.0998 305.399 33.9702 304.786 35.0201V59.4254H294.726V24.8332H304.169Z" fill="#0089C3"/>
<path d="M346.94 59.433C341.923 59.433 337.843 57.9047 334.698 54.8481C331.554 51.7916 329.981 47.7189 329.981 42.6301V41.7509C329.926 38.5853 330.607 35.4499 331.972 32.5895C333.193 30.0096 335.153 27.8458 337.606 26.3696C340.125 24.8907 343.007 24.1343 345.933 24.1839C350.608 24.1839 354.287 25.6493 356.969 28.5798C359.651 31.5104 360.994 35.668 361 41.0526V44.7665H339.233C339.439 46.8104 340.388 48.7093 341.901 50.1072C343.454 51.4708 345.474 52.1886 347.543 52.1121C349.125 52.1814 350.7 51.873 352.138 51.2125C353.575 50.5521 354.832 49.5589 355.804 48.316L360.273 53.2706C358.854 55.235 356.935 56.7889 354.714 57.7732C352.277 58.8904 349.623 59.4572 346.94 59.433ZM345.9 31.4967C345.075 31.4673 344.254 31.6159 343.492 31.9322C342.731 32.2485 342.047 32.725 341.488 33.329C340.25 34.8143 339.498 36.6405 339.332 38.5629H352.012V37.8399C352.079 36.1267 351.489 34.4525 350.36 33.1565C349.774 32.5857 349.075 32.1432 348.306 31.8574C347.538 31.5715 346.718 31.4487 345.9 31.4967Z" fill="#0089C3"/>
<path d="M0.0184937 0.210449V70.7146H67.7025V0.210449H0.0184937ZM14.5204 63.5584H7.0989V34.3405H14.5204V63.5584ZM14.5204 18.3256V26.4558H7.0989V7.68009H19.2379C17.7593 9.01622 16.5748 10.6553 15.7618 12.4898C14.9488 14.3244 14.5258 16.313 14.5204 18.3256ZM23.4229 63.5584V34.3405H32.2838V26.4558H23.4229V18.3256C23.4316 17.5793 23.5846 16.8421 23.8733 16.156C24.1619 15.47 24.5804 14.8485 25.105 14.3271C25.6296 13.8057 26.25 13.3945 26.9307 13.1172C27.6114 12.8399 28.3391 12.7017 29.0723 12.7107H38.5572V51.5748C38.5588 53.9387 39.1282 56.2664 40.2158 58.3551C41.3034 60.4438 42.8762 62.2301 44.7973 63.5584H23.4229ZM60.3725 57.1982H52.8095C51.3692 57.1715 49.9982 56.5645 48.9968 55.5103C47.9955 54.4562 47.4458 53.0409 47.468 51.5748V7.68009H60.3725V57.1982Z" fill="#0089C3"/>
</svg>
