<svg width="52" height="52" viewBox="0 0 52 52" fill="none" xmlns="http://www.w3.org/2000/svg">
<path d="M40.4665 3.64718e-06H11.5338C10.0184 -0.00120144 8.51767 0.296238 7.11729 0.875319C5.7169 1.4544 4.44432 2.30377 3.37235 3.37489C2.30038 4.446 1.45003 5.71788 0.869839 7.1178C0.289646 8.51773 -0.00900316 10.0183 -0.00900269 11.5336V40.4664C-0.00900269 43.5253 1.20612 46.4589 3.3691 48.6219C5.53208 50.7849 8.46574 52 11.5247 52H40.4573C43.5163 52 46.4499 50.7849 48.6128 48.6219C50.7758 46.4589 51.991 43.5253 51.991 40.4664V11.5336C51.991 8.47632 50.7771 5.54408 48.6161 3.38137C46.4551 1.21865 43.5238 0.00243492 40.4665 3.64718e-06ZM38.3753 41.4478C36.2153 43.4564 33.6152 43.7178 30.914 42.9382C27.2453 41.8742 24.2873 39.5904 21.7696 36.7747C17.014 31.4642 13.6709 25.4795 12.8958 18.2291C12.4877 14.3953 13.9598 11.497 16.8535 9.1994C18.376 7.9933 19.6968 8.30973 20.6598 9.98819C20.9952 10.5625 21.282 11.1638 21.5174 11.7859C23.2555 16.4314 23.6636 16.2342 19.4308 18.6648C18.1467 19.4077 17.5689 20.4625 18.0825 21.8245C20.2975 27.7083 23.4894 32.9087 28.6715 36.7747C29.0017 36.5775 29.1301 36.5179 29.231 36.4399C34.17 32.9317 34.7845 33.0601 38.6596 37.6644C39.9254 39.1915 39.5814 40.3242 38.3753 41.4478Z" fill="#0089C4"/>
</svg>
